<?xml version="1.0" standalone="no"?>
<!DOCTYPE svg PUBLIC "-//W3C//DTD SVG 20010904//EN"
 "http://www.w3.org/TR/2001/REC-SVG-20010904/DTD/svg10.dtd">
<svg version="1.0" xmlns="http://www.w3.org/2000/svg"
 width="105.000000pt" height="105.000000pt" viewBox="0 0 105.000000 105.000000"
 preserveAspectRatio="xMidYMid meet">
<metadata>
Created by potrace 1.11, written by Peter Selinger 2001-2013
</metadata>
<g transform="translate(0.000000,105.000000) scale(0.100000,-0.100000)"
fill="#000000" stroke="none">
<path d="M177 1044 c-4 -4 -1 -14 6 -22 6 -9 7 -13 1 -9 -14 8 -13 -103 1
-119 6 -8 16 -9 26 -3 9 4 19 6 22 3 10 -10 57 -11 57 -2 0 5 6 6 13 1 18 -11
87 -10 87 2 0 7 3 7 8 0 9 -12 72 -14 72 -2 0 4 5 5 12 1 6 -4 21 -8 32 -9 59
-5 126 -59 148 -120 26 -72 6 -148 -54 -199 -49 -42 -69 -46 -278 -49 -148 -2
-155 -3 -155 -22 0 -11 4 -26 10 -34 6 -10 6 -13 0 -9 -12 8 -13 -371 0 -391
5 -9 4 -12 -3 -7 -14 8 -12 -27 2 -40 14 -12 86 -12 86 0 0 4 6 3 13 -3 8 -6
17 -7 21 -3 4 4 13 7 19 7 9 0 13 41 14 140 1 77 2 154 2 171 l1 30 101 1 c55
0 119 6 142 14 58 18 127 62 164 103 31 33 79 116 68 116 -3 0 -1 9 5 21 14
25 20 137 9 160 -5 9 -10 27 -13 41 -12 67 -97 162 -182 204 -58 29 -62 29
-254 32 -107 2 -199 0 -203 -4z"/>
<path d="M650 269 c0 -5 5 -7 10 -4 6 3 10 8 10 11 0 2 -4 4 -10 4 -5 0 -10
-5 -10 -11z"/>
<path d="M695 270 c3 -5 8 -10 11 -10 2 0 4 5 4 10 0 6 -5 10 -11 10 -5 0 -7
-4 -4 -10z"/>
<path d="M570 230 c0 -5 5 -10 11 -10 5 0 7 5 4 10 -3 6 -8 10 -11 10 -2 0 -4
-4 -4 -10z"/>
<path d="M615 230 c-3 -5 -1 -10 4 -10 6 0 11 5 11 10 0 6 -2 10 -4 10 -3 0
-8 -4 -11 -10z"/>
<path d="M650 189 c0 -5 5 -7 10 -4 6 3 10 8 10 11 0 2 -4 4 -10 4 -5 0 -10
-5 -10 -11z"/>
<path d="M655 150 c3 -5 8 -10 11 -10 2 0 4 5 4 10 0 6 -5 10 -11 10 -5 0 -7
-4 -4 -10z"/>
<path d="M690 150 c0 -5 5 -10 11 -10 5 0 7 5 4 10 -3 6 -8 10 -11 10 -2 0 -4
-4 -4 -10z"/>
<path d="M756 128 c3 -5 10 -6 15 -3 13 9 11 12 -6 12 -8 0 -12 -4 -9 -9z"/>
<path d="M697 45 c-4 -8 -3 -16 1 -19 4 -3 9 4 9 15 2 23 -3 25 -10 4z"/>
</g>
</svg>
