<svg xmlns="http://www.w3.org/2000/svg" xmlns:xlink="http://www.w3.org/1999/xlink" viewBox="0 0 122.98 30.26"><defs><style>.cls-1{fill:#c91d44;}.cls-2{fill:url(#Безымянный_градиент);}.cls-3{fill:#423e3e;opacity:0.2;isolation:isolate;}</style><linearGradient id="Безымянный_градиент" x1="-219.77" y1="412.34" x2="-219.77" y2="411.35" gradientTransform="matrix(15.78, 0, 0, -16.51, 3475.46, 6809.81)" gradientUnits="userSpaceOnUse"><stop offset="0" stop-color="#e65b29"/><stop offset="1" stop-color="#d8174e"/></linearGradient></defs><title>Ресурс 1</title><g id="Слой_2" data-name="Слой 2"><g id="Слой_1-2" data-name="Слой 1"><path d="M28.35,20.83l2.27.28a5.54,5.54,0,0,1-2,3.09,6,6,0,0,1-3.71,1.1,5.93,5.93,0,0,1-4.51-1.75,6.84,6.84,0,0,1-1.67-4.91,7.16,7.16,0,0,1,1.68-5.08,5.7,5.7,0,0,1,4.37-1.81A5.54,5.54,0,0,1,29,13.51a7,7,0,0,1,1.65,5c0,.13,0,.33,0,.59H21a5,5,0,0,0,1.21,3.27,3.59,3.59,0,0,0,2.71,1.14A3.36,3.36,0,0,0,27,22.85,4.22,4.22,0,0,0,28.35,20.83Zm-7.21-3.55h7.24a4.4,4.4,0,0,0-.83-2.45,3.37,3.37,0,0,0-2.72-1.27,3.49,3.49,0,0,0-2.55,1,4,4,0,0,0-1.14,2.71ZM33.39,12H43.62V25h-2.2V13.86H35.59V25H33.4ZM46.82,30l-.24-2.06a4.9,4.9,0,0,0,1.26.19A2.41,2.41,0,0,0,49,27.88a2,2,0,0,0,.72-.68,10.83,10.83,0,0,0,.67-1.64q.06-.18.2-.54L45.68,12H48l2.7,7.51q.52,1.43.94,3a29.54,29.54,0,0,1,.9-3L55.36,12h2.2L52.62,25.22a25.88,25.88,0,0,1-1.23,2.94A4.33,4.33,0,0,1,50,29.76a3.17,3.17,0,0,1-1.81.51A4.43,4.43,0,0,1,46.82,30ZM58.24,12H68.77v1.82H64.6V25H62.41V13.86H58.24ZM79,23.4a8.18,8.18,0,0,1-2.35,1.47,6.79,6.79,0,0,1-2.42.43,4.71,4.71,0,0,1-3.28-1,3.45,3.45,0,0,1-1.15-2.67,3.55,3.55,0,0,1,.43-1.74,3.59,3.59,0,0,1,1.14-1.26A5.34,5.34,0,0,1,73,17.86a15.75,15.75,0,0,1,2-.33,20,20,0,0,0,3.92-.76c0-.3,0-.49,0-.57a2.43,2.43,0,0,0-.62-1.89,3.68,3.68,0,0,0-2.5-.74,3.88,3.88,0,0,0-2.29.54A3.32,3.32,0,0,0,72.37,16l-2.15-.29a5.32,5.32,0,0,1,1-2.23,4.23,4.23,0,0,1,1.94-1.31,8.67,8.67,0,0,1,2.94-.46,7.8,7.8,0,0,1,2.7.39,3.56,3.56,0,0,1,1.53,1,3.45,3.45,0,0,1,.68,1.5,12.39,12.39,0,0,1,.11,2v2.93a31.26,31.26,0,0,0,.14,3.88A4.89,4.89,0,0,0,81.78,25H79.49A4.66,4.66,0,0,1,79,23.4Zm-.18-4.91a16.15,16.15,0,0,1-3.59.83,8.21,8.21,0,0,0-1.92.44A1.92,1.92,0,0,0,72.85,23a2.87,2.87,0,0,0,1.95.59A4.52,4.52,0,0,0,77.06,23a3.42,3.42,0,0,0,1.45-1.52,5.3,5.3,0,0,0,.35-2.2ZM84.53,12h2.2V23.19h6.08V12H95V23.19h1.42v5.48H94.61V25H84.53V12Zm14.28,0H101v9.89L107.1,12h2.37V25h-2.2V15.17L101.18,25H98.81V12ZM123,12V25H120.8V19.95h-1.27a3.84,3.84,0,0,0-1.73.3,6.42,6.42,0,0,0-1.65,1.92L114.23,25h-2.72l2.37-3.49A3.78,3.78,0,0,1,116,19.7a4.19,4.19,0,0,1-2.79-1.35,3.85,3.85,0,0,1-.91-2.53,3.48,3.48,0,0,1,1.19-2.73A5.06,5.06,0,0,1,117,12h6Zm-2.18,1.82h-3.12a3.61,3.61,0,0,0-2.53.61,2,2,0,0,0-.57,1.43,1.88,1.88,0,0,0,.84,1.7,5.77,5.77,0,0,0,3,.54h2.43V13.86Z"/><path class="cls-1" d="M0,12.66H3.85V24.77H0Z"/><path class="cls-2" d="M7.43,0H0V3.85H7.43a4.4,4.4,0,1,1,0,8.81H0l3.85,3.85H7.43A8.26,8.26,0,0,0,7.61,0Z"/><path class="cls-3" d="M12.39,16.51a9.57,9.57,0,0,1-4.26,1.35l3.21,6.91h5l-3.84-8.26Z"/></g></g></svg>