<svg xmlns="http://www.w3.org/2000/svg" xmlns:xlink="http://www.w3.org/1999/xlink" width="30" height="30" viewBox="0 0 30 30">
    <defs>
        <path id="a" d="M144 15c0-8.284 6.716-15 15-15 8.284 0 15 6.716 15 15 0 8.284-6.716 15-15 15-8.284 0-15-6.716-15-15zm12.255-.429V16.2h2.703c-.109.699-.817 2.05-2.703 2.05-1.627 0-2.955-1.344-2.955-3s1.328-3 2.955-3c.926 0 1.546.394 1.9.734l1.293-1.242c-.83-.774-1.906-1.242-3.193-1.242a4.754 4.754 0 0 0-4.766 4.75 4.754 4.754 0 0 0 4.766 4.75c2.75 0 4.575-1.927 4.575-4.641 0-.313-.034-.55-.075-.788h-4.5zm10.213 0h-1.362v-1.357h-1.362v1.357h-1.361v1.358h1.361v1.357h1.362v-1.357h1.362V14.57z"/>
    </defs>
    <g fill="none" fill-rule="evenodd" transform="translate(-144)">
        <use fill="#FFF" xlink:href="#a"/>
        <use fill="#7F7F7F" xlink:href="#a"/>
    </g>
</svg>
