<svg xmlns="http://www.w3.org/2000/svg" xmlns:xlink="http://www.w3.org/1999/xlink" width="30" height="30" viewBox="0 0 30 30">
    <defs>
        <path id="a" d="M192 15c0-8.284 6.716-15 15-15 8.284 0 15 6.716 15 15 0 8.284-6.716 15-15 15-8.284 0-15-6.716-15-15zm10.6-2.576h-3.399v10.213h3.4V12.424zm.224-3.16c-.022-1.001-.738-1.764-1.9-1.764-1.164 0-1.924.763-1.924 1.764 0 .98.738 1.766 1.879 1.766h.022c1.185 0 1.923-.785 1.923-1.766zm12.036 7.517c0-3.137-1.677-4.597-3.914-4.597-1.805 0-2.613.991-3.064 1.687v-1.447h-3.4c.045.958 0 10.213 0 10.213h3.4v-5.704c0-.305.022-.61.112-.828.245-.61.805-1.241 1.744-1.241 1.23 0 1.722.936 1.722 2.309v5.464h3.4v-5.856z"/>
    </defs>
    <g fill="none" fill-rule="evenodd" transform="translate(-192)">
        <use fill="#FFF" xlink:href="#a"/>
        <use fill="#7F7F7F" xlink:href="#a"/>
    </g>
</svg>
