<svg xmlns="http://www.w3.org/2000/svg" xmlns:xlink="http://www.w3.org/1999/xlink" width="30" height="30" viewBox="0 0 30 30">
    <defs>
        <path id="a" d="M96 15c0-8.284 6.716-15 15-15 8.284 0 15 6.716 15 15 0 8.284-6.716 15-15 15-8.284 0-15-6.716-15-15zm14.99.24c2.212 0 4.01-1.735 4.01-3.869 0-2.135-1.798-3.871-4.01-3.871-2.212 0-4.01 1.736-4.01 3.871 0 2.134 1.798 3.87 4.01 3.87zm1.632 3.16a7.664 7.664 0 0 0 2.329-.93 1.111 1.111 0 0 0 .368-1.564 1.199 1.199 0 0 0-1.62-.357 5.247 5.247 0 0 1-5.399 0 1.198 1.198 0 0 0-1.62.357c-.345.53-.18 1.23.369 1.563.725.44 1.512.752 2.328.931l-2.242 2.164a1.107 1.107 0 0 0 0 1.604c.23.221.53.332.831.332.301 0 .602-.11.832-.332L111 20.04l2.204 2.127a1.204 1.204 0 0 0 1.66 0c.46-.443.46-1.161 0-1.604l-2.242-2.164zM111.1 9.75a1.603 1.603 0 0 1 0 3.205 1.604 1.604 0 0 1 0-3.205z"/>
    </defs>
    <g fill="none" fill-rule="evenodd" transform="translate(-96)">
        <use fill="#FFF" xlink:href="#a"/>
        <use fill="#7F7F7F" xlink:href="#a"/>
    </g>
</svg>
