<svg xmlns="http://www.w3.org/2000/svg" width="16" height="13" viewBox="0 0 16 13">
    <g fill="#979797" fill-rule="nonzero">
        <path d="M1.535 3.898c.202.142.811.566 1.829 1.271A447.43 447.43 0 0 1 5.7 6.797l.38.272c.193.14.353.253.481.34.128.086.283.182.464.29.181.106.353.187.513.24.16.054.31.08.446.08H8.003c.137 0 .286-.026.446-.08.16-.053.332-.134.513-.24a9.42 9.42 0 0 0 .464-.29c.128-.087.289-.2.482-.34s.32-.23.38-.272l4.175-2.9c.434-.303.797-.668 1.088-1.097.292-.428.437-.877.437-1.347 0-.392-.141-.729-.424-1.008a1.379 1.379 0 0 0-1.003-.42H1.427C.97.026.617.18.37.49.123.8 0 1.185 0 1.65c0 .375.164.781.49 1.218.328.437.676.781 1.045 1.03z"/>
        <path d="M15.096 4.852a185.428 185.428 0 0 0-4.443 3.079c-.34.25-.614.444-.825.584-.212.14-.492.282-.843.428-.351.146-.678.219-.982.219h-.018c-.303 0-.63-.073-.981-.219a5.095 5.095 0 0 1-.843-.428 21.13 21.13 0 0 1-.826-.585c-.803-.588-2.28-1.614-4.434-3.078A4.726 4.726 0 0 1 0 4.076v7.084c0 .393.14.729.42 1.008.279.28.615.42 1.008.42H14.56c.392 0 .728-.14 1.008-.42.28-.28.42-.615.42-1.008V4.076a4.92 4.92 0 0 1-.893.776z"/>
    </g>
</svg>
