<svg xmlns="http://www.w3.org/2000/svg" xmlns:xlink="http://www.w3.org/1999/xlink" viewBox="0 0 15 15"><defs><style>.cls-1{fill:#fff;}.cls-2{fill:#d4d4d4;}.cls-3{mask:url(#mask);}</style><mask id="mask" x="0" y="0" width="15" height="15" maskUnits="userSpaceOnUse"><g id="b"><path id="a" class="cls-1" d="M11.15,9.82l3.11,3.11a.94.94,0,0,1-1.33,1.33L9.82,11.15a5.62,5.62,0,1,1,1.33-1.33ZM9.39,9A3.75,3.75,0,1,0,9,9.39.94.94,0,0,1,9.39,9Z"/></g></mask></defs><title>Ресурс 1</title><g id="Слой_2" data-name="Слой 2"><g id="Слой_1-2" data-name="Слой 1"><path id="a-2" data-name="a" class="cls-2" d="M11.15,9.82l3.11,3.11a.94.94,0,0,1-1.33,1.33L9.82,11.15a5.62,5.62,0,1,1,1.33-1.33ZM9.39,9A3.75,3.75,0,1,0,9,9.39.94.94,0,0,1,9.39,9Z"/><g class="cls-3"><path class="cls-2" d="M0,0H15V15H0Z"/></g></g></g></svg>