<svg xmlns="http://www.w3.org/2000/svg" viewBox="0 0 32 26"><defs><style>.cls-1{opacity:0.5;}</style></defs><title>Ресурс 1</title><g id="Слой_2" data-name="Слой 2"><g id="Слой_1-2" data-name="Слой 1"><g class="cls-1"><path d="M14.15,15.48a1.85,1.85,0,1,0,3.69,0Z"/><circle cx="17.85" cy="13.93" r="1"/><circle cx="14.15" cy="13.93" r="1"/><path d="M30.15,5H25.85V3.1A1.85,1.85,0,0,0,24,1.24H21.43A1.84,1.84,0,0,0,19.69,0H12.31a1.84,1.84,0,0,0-1.73,1.24H8A1.85,1.85,0,0,0,6.15,3.1V5H1.85A1.85,1.85,0,0,0,0,6.81V20.43a1.85,1.85,0,0,0,1.85,1.86H6.15v1.86A1.85,1.85,0,0,0,8,26H24a1.85,1.85,0,0,0,1.85-1.86V22.29h4.31A1.85,1.85,0,0,0,32,20.43V6.81A1.85,1.85,0,0,0,30.15,5Zm0,1.24a.62.62,0,0,1,.61.62V18.57h-.66a5.07,5.07,0,0,0-2.17-3.51,3.07,3.07,0,0,0,.37-1.44V12.38a3.1,3.1,0,0,0-2.46-3V6.19Zm-3.08,7.43a1.85,1.85,0,0,1-1.23,1.74V10.64a1.86,1.86,0,0,1,1.23,1.74ZM27.14,16a4,4,0,0,1,1.71,2.55h-3V16.65A3,3,0,0,0,27.14,16ZM11.69,1.86a.62.62,0,0,1,.62-.62h7.38a.62.62,0,0,1,.62.62v.62a.62.62,0,0,1-.62.62H12.31a.62.62,0,0,1-.62-.62h0ZM8,2.48h2.46a1.85,1.85,0,0,0,1.85,1.86h7.38a1.85,1.85,0,0,0,1.85-1.86H24a.62.62,0,0,1,.61.62V22.29h-.76a8.07,8.07,0,0,0-3.45-5.22,5,5,0,0,0,.52-2.21V12.38a4.92,4.92,0,1,0-9.85,0v2.48a4.94,4.94,0,0,0,.52,2.21,8.07,8.07,0,0,0-3.45,5.22H7.39V3.1A.62.62,0,0,1,8,2.48ZM19.69,14.86a3.69,3.69,0,1,1-7.38,0V12.38a3.69,3.69,0,1,1,7.38,0Zm-3.69,5a4.9,4.9,0,0,0,3.72-1.72,6.84,6.84,0,0,1,2.88,4.19H9.4a6.83,6.83,0,0,1,2.88-4.19A4.9,4.9,0,0,0,16,19.81ZM6.15,15.36a1.85,1.85,0,0,1-1.23-1.74V12.38a1.85,1.85,0,0,1,1.23-1.74ZM4.85,16a3,3,0,0,0,1.3.63v1.92h-3A3.73,3.73,0,0,1,4.85,16Zm-3-9.83H6.16V9.35a3.1,3.1,0,0,0-2.46,3v1.24a3.06,3.06,0,0,0,.37,1.44,5,5,0,0,0-2.17,3.51H1.23V6.81A.62.62,0,0,1,1.85,6.19ZM1.85,21a.62.62,0,0,1-.62-.62v-.62H6.16V21H1.85ZM24,24.76H8a.62.62,0,0,1-.61-.62v-.62H24.62v.62A.62.62,0,0,1,24,24.76ZM30.15,21H25.85V19.81h4.92v.62A.62.62,0,0,1,30.15,21Z"/></g></g></g></svg>