<svg xmlns="http://www.w3.org/2000/svg" width="30" height="32" viewBox="0 0 30 32">
    <g fill="#000" fill-rule="nonzero" opacity=".5">
        <path d="M2.462 4.923h4.923v1.231H2.462zM8.615 4.923h2.462v1.231H8.615zM8.615 16.615h1.231v4.923H8.615zM9.23 15.385a1.232 1.232 0 0 1 0-2.462 1.232 1.232 0 0 1 0 2.462zM2.462 0h24.615v1.231H2.462z"/>
        <path d="M27.692 2.462H1.846A1.848 1.848 0 0 0 0 4.308V25.23c0 1.018.828 1.846 1.846 1.846h7.612c.2 0 .389.098.504.261l2.727 3.876a1.792 1.792 0 0 0 2.93 0l2.727-3.875a.616.616 0 0 1 .504-.262h8.842a1.848 1.848 0 0 0 1.846-1.846V4.308a1.848 1.848 0 0 0-1.846-1.846zM1.846 3.692h25.846c.34 0 .616.276.616.616v3.077H1.23V4.308c0-.34.275-.616.615-.616zm25.846 22.154H18.85c-.6 0-1.165.294-1.51.784l-2.728 3.875c-.213.303-.703.303-.917 0l-2.727-3.875a1.85 1.85 0 0 0-1.51-.784H1.846a.616.616 0 0 1-.615-.615V8.615h27.077v16.616c0 .34-.276.615-.616.615z"/>
        <path d="M2.462 23.385c0 .678.552 1.23 1.23 1.23h22.154c.679 0 1.23-.552 1.23-1.23V9.846H2.463v13.539zm1.23-12.308h22.154v12.308H3.692V11.077z"/>
        <path d="M11.692 20.308h4.923v1.231h-4.923zM11.692 17.846h6.154v1.231h-6.154zM11.692 15.385h7.385v1.231h-7.385zM11.692 12.923h8.615v1.231h-8.615z"/>
    </g>
</svg>
