<svg xmlns="http://www.w3.org/2000/svg" viewBox="0 0 32 32"><defs><style>.cls-1{opacity:0.5;}</style></defs><title>Ресурс 1</title><g id="Слой_2" data-name="Слой 2"><g id="Слой_1-2" data-name="Слой 1"><g class="cls-1"><path d="M16.62,32H15.38a2.46,2.46,0,0,1-2.46-2.46v-.71A1.26,1.26,0,0,0,12,27.65,12.27,12.27,0,0,1,10.56,27a1.27,1.27,0,0,0-1.45.21l-.51.51a2.46,2.46,0,0,1-3.48,0l-.87-.87a2.46,2.46,0,0,1,0-3.48l.51-.51A1.26,1.26,0,0,0,5,21.44,12.22,12.22,0,0,1,4.35,20a1.26,1.26,0,0,0-1.17-.88H2.46A2.46,2.46,0,0,1,0,16.62V15.38a2.46,2.46,0,0,1,2.46-2.46h.71A1.26,1.26,0,0,0,4.35,12,12.29,12.29,0,0,1,5,10.56a1.26,1.26,0,0,0-.21-1.45L4.25,8.6a2.46,2.46,0,0,1,0-3.48l.87-.87a2.46,2.46,0,0,1,3.48,0l.51.51A1.26,1.26,0,0,0,10.56,5,12.22,12.22,0,0,1,12,4.35a1.26,1.26,0,0,0,.88-1.18v-.1A3.08,3.08,0,0,1,16,0V1.23a1.85,1.85,0,0,0-1.85,1.85v.1a2.49,2.49,0,0,1-1.71,2.34,11.17,11.17,0,0,0-1.34.55,2.49,2.49,0,0,1-2.87-.44l-.51-.51A1.23,1.23,0,0,0,6,5.12L5.12,6a1.23,1.23,0,0,0,0,1.74l.51.51a2.49,2.49,0,0,1,.44,2.87,11.08,11.08,0,0,0-.56,1.34,2.49,2.49,0,0,1-2.34,1.71H2.46a1.23,1.23,0,0,0-1.23,1.23v1.24a1.23,1.23,0,0,0,1.23,1.23h.71a2.49,2.49,0,0,1,2.34,1.71,11,11,0,0,0,.55,1.34,2.49,2.49,0,0,1-.44,2.87l-.51.51a1.23,1.23,0,0,0,0,1.74l.87.87a1.23,1.23,0,0,0,1.74,0l.51-.51a2.49,2.49,0,0,1,2.87-.44,11.08,11.08,0,0,0,1.34.56,2.49,2.49,0,0,1,1.71,2.34v.72a1.23,1.23,0,0,0,1.23,1.23h1.24a1.23,1.23,0,0,0,1.23-1.23v-.72a2.49,2.49,0,0,1,1.71-2.34,11,11,0,0,0,1.34-.56,2.49,2.49,0,0,1,2.87.44l.51.51a1.23,1.23,0,0,0,1.74,0l.87-.87a1.23,1.23,0,0,0,0-1.74l-.54-.54a2.42,2.42,0,0,1-.43-2.8,11.22,11.22,0,0,0,.58-1.37,2.49,2.49,0,0,1,2.34-1.71h.09A1.85,1.85,0,0,0,30.77,16H32a3.08,3.08,0,0,1-3.08,3.08h-.09a1.26,1.26,0,0,0-1.18.88A12.36,12.36,0,0,1,27,21.48a1.19,1.19,0,0,0,.2,1.38l.54.54a2.46,2.46,0,0,1,0,3.48l-.87.87a2.46,2.46,0,0,1-3.48,0l-.51-.51A1.26,1.26,0,0,0,21.44,27a12.29,12.29,0,0,1-1.49.62,1.26,1.26,0,0,0-.87,1.17v.72A2.46,2.46,0,0,1,16.62,32Z"/><circle cx="16" cy="16" r="3.08"/><path d="M16,25.85A9.85,9.85,0,0,1,16,6.15V7.38A8.62,8.62,0,1,0,24.61,16h1.23A9.86,9.86,0,0,1,16,25.85Z"/><path d="M16,22.77A6.77,6.77,0,0,1,16,9.23v1.23A5.54,5.54,0,1,0,21.54,16h1.23A6.78,6.78,0,0,1,16,22.77Zm8.61-8a1.85,1.85,0,0,1-1.85-1.85V12.6a5.16,5.16,0,0,1-.51-.21l-.25.22a1.89,1.89,0,0,1-2.61,0,1.85,1.85,0,0,1,0-2.61l.23-.23a5.34,5.34,0,0,1-.22-.51l-.33,0a1.85,1.85,0,0,1,0-3.69h.32A5.32,5.32,0,0,1,19.61,5l-.22-.25a1.85,1.85,0,0,1,0-2.61,1.89,1.89,0,0,1,2.61,0l.23.23a5.19,5.19,0,0,1,.51-.21l0-.33a1.85,1.85,0,1,1,3.69,0v.32a5.08,5.08,0,0,1,.51.21l.25-.22a1.89,1.89,0,0,1,2.61,0,1.85,1.85,0,0,1,0,2.61L29.61,5a5.18,5.18,0,0,1,.21.51l.33,0a1.85,1.85,0,1,1,0,3.69h-.32a5.16,5.16,0,0,1-.21.51l.22.25a1.85,1.85,0,0,1,0,2.61,1.89,1.89,0,0,1-2.61,0L27,12.38a5.34,5.34,0,0,1-.51.22l0,.33a1.85,1.85,0,0,1-1.85,1.85Zm-2.39-3.62a1.31,1.31,0,0,1,.56.13l.37.15A1.24,1.24,0,0,1,24,12.6v.32a.62.62,0,0,0,1.23,0V12.6a1.24,1.24,0,0,1,.84-1.17l.38-.16a1.24,1.24,0,0,1,1.42.23l.23.23a.63.63,0,0,0,.87,0,.61.61,0,0,0,0-.87h0l-.23-.23a1.24,1.24,0,0,1-.23-1.42,3.84,3.84,0,0,0,.16-.37A1.24,1.24,0,0,1,29.83,8h.32a.62.62,0,0,0,0-1.23h-.32a1.24,1.24,0,0,1-1.17-.84,4,4,0,0,0-.16-.38,1.24,1.24,0,0,1,.23-1.42L29,3.9A.61.61,0,0,0,29,3h0a.63.63,0,0,0-.87,0l-.23.23a1.24,1.24,0,0,1-1.42.23l-.37-.15a1.24,1.24,0,0,1-.84-1.17V1.85a.62.62,0,0,0-1.23,0v.32a1.24,1.24,0,0,1-.84,1.17l-.38.16a1.24,1.24,0,0,1-1.42-.23L21.13,3a.63.63,0,0,0-.87,0,.61.61,0,0,0,0,.87h0l.23.23a1.24,1.24,0,0,1,.23,1.42,3.84,3.84,0,0,0-.16.38,1.24,1.24,0,0,1-1.17.84h-.32a.62.62,0,0,0,0,1.23h.32a1.24,1.24,0,0,1,1.17.84,4,4,0,0,0,.16.38,1.24,1.24,0,0,1-.23,1.42l-.23.23a.61.61,0,0,0,0,.86h0a.63.63,0,0,0,.87,0l.23-.23A1.21,1.21,0,0,1,22.23,11.15Z"/><path d="M24.61,9.85a2.46,2.46,0,1,1,2.46-2.46A2.46,2.46,0,0,1,24.61,9.85Zm0-3.69a1.23,1.23,0,1,0,1.17,1.17A1.23,1.23,0,0,0,24.61,6.15Z"/></g></g></g></svg>