<svg xmlns="http://www.w3.org/2000/svg" width="28" height="34" viewBox="0 0 28 34">
    <g fill="#000" fill-rule="nonzero" opacity=".5">
        <circle cx="17.327" cy="19.615" r="1.635"/>
        <circle cx="10.135" cy="19.615" r="1.635"/>
        <path d="M11.115 22.885c0 1.307 1.171 2.615 2.616 2.615 1.444 0 2.615-1.308 2.615-2.615h-5.23z"/>
        <path d="M26.154 17c0-.85-.654-1.57-1.308-1.84v-.775c0-3.069-1.308-5.851-3.27-7.865V1.881c0-.61-.319-1.162-.877-1.516a2.408 2.408 0 0 0-2.293-.14l-2.583 1.208a3.239 3.239 0 0 0-2.092-.779c-.8 0-1.524.3-2.093.78L9.055.225a2.405 2.405 0 0 0-2.292.139c-.559.354-.878.907-.878 1.516v4.64c-1.962 2.012-3.27 4.794-3.27 7.864v.774c-.653.271-1.307.99-1.307 1.842C.586 17 0 17.587 0 18.308c0 .722.587 1.308 1.308 1.308 0 .851.654 1.57 1.307 1.841V25.5c0 1.081.88 1.962 1.962 1.962h3.27v-.019c1.307 1.237 3.674 1.98 5.884 1.98 2.21 0 3.923-.743 5.884-1.98v.019h3.27c1.081 0 1.961-.88 1.961-1.962v-4.043c.654-.271 1.308-.99 1.308-1.842.721 0 1.308-.586 1.308-1.307A1.31 1.31 0 0 0 26.154 17zM18.96 1.41c.332-.154.738-.13 1.036.059.102.064.272.203.272.412v3.535c-1.307-.721-2.09-1.292-3.286-1.658a3.239 3.239 0 0 0-.33-1.27l2.308-1.078zm-5.23.552c.915 0 1.68.632 1.895 1.482a11.104 11.104 0 0 0-1.895-.174c-.648 0-1.278.067-1.895.174.215-.85.98-1.482 1.895-1.482zm-6.539-.08c0-.21.171-.35.272-.414a1.103 1.103 0 0 1 1.037-.058l2.307 1.079c-.19.387-.306.814-.33 1.268-1.195.367-2.632.938-3.286 1.66V1.88zm6.539 2.696c5.408 0 9.807 4.399 9.807 9.807v.653h-7.192a5.236 5.236 0 0 1-5.23-5.23V8.5H9.807v1.308a5.236 5.236 0 0 1-5.231 5.23h-.654v-.653c0-5.408 4.4-9.807 9.808-9.807zM2.615 17c0-.361.294-.654.655-.654h.653v3.923H3.27a.655.655 0 0 1-.654-.655v-2.614zM3.923 25.5v-3.923h.198c.355 1.961 1.178 3.27 2.32 4.577H4.578a.655.655 0 0 1-.654-.654zm1.308-5.885v-3.302c1.961-.23 4.263-1.67 5.23-3.674 1.058 2.19 3.295 3.707 5.885 3.707h5.885v3.27c0 4.686-3.813 8.5-8.5 8.5-4.687 0-8.5-3.814-8.5-8.5zm17.654 6.539H21.02c1.143-1.308 1.967-2.616 2.321-4.577h.197V25.5c0 .36-.293.654-.653.654zm1.961-6.539c0 .361-.293.654-.654.654h-.654v-3.923h.654c.361 0 .654.294.654.654v2.615zM24.846 29.423c0 1.082-.88 1.962-1.961 1.962h-4.698c-.27-.654-.99-1.308-1.84-1.308H13.73c-1.082 0-1.962.88-1.962 1.961 0 1.082.88 1.962 1.962 1.962h2.615c.851 0 1.57-.654 1.841-1.308h4.698a3.273 3.273 0 0 0 3.269-3.269v-1.961h-1.308v1.961zm-8.5 3.27h-2.615a.654.654 0 0 1 0-1.308h2.615a.654.654 0 0 1 0 1.307z"/>
        <path d="M8.5 9.808H7.192c0 1.307-1.307 2.616-2.615 2.616v1.307c1.961 0 3.923-1.308 3.923-3.923zM16.346 13.73h4.577v-1.307h-4.577c-1.442 0-2.615-1.308-2.615-2.615h-1.308c0 2.615 1.76 3.923 3.923 3.923z"/>
    </g>
</svg>
