<svg xmlns="http://www.w3.org/2000/svg" width="32" height="30" viewBox="0 0 32 30">
    <g fill="#000" fill-rule="nonzero" opacity=".5">
        <path d="M31.46 6.067L26.025.549A1.818 1.818 0 0 0 24.721 0h-14.26C9.445 0 8.616.841 8.616 1.875v6.282c-3.105.314-5.538 2.983-5.538 6.218-1.358 0-2.462 1.121-2.462 2.5s1.104 2.5 2.462 2.5h.284c.123.4.287.781.484 1.142A9.457 9.457 0 0 0 0 28.125C0 29.159.828 30 1.846 30h28.308C31.172 30 32 29.159 32 28.125V7.393c0-.501-.193-.972-.54-1.326zm-5.614-3.933L29.9 6.25h-3.437a.62.62 0 0 1-.616-.625V2.134zM4.308 14.375c0-2.757 2.208-5 4.923-5 2.714 0 4.923 2.243 4.923 5V17.5c0 2.757-2.209 5-4.923 5-2.715 0-4.923-2.242-4.923-5v-3.125zm-1.231 3.75c-.679 0-1.23-.56-1.23-1.25s.551-1.25 1.23-1.25V17.5c0 .21.011.42.031.625h-.031zM9.23 23.75c1.875 0 3.554-.859 4.684-2.207.334.246.647.513.936.805C13.443 24.032 11.416 25 9.231 25s-4.213-.968-5.62-2.652a8.01 8.01 0 0 1 .935-.804c1.13 1.347 2.81 2.206 4.685 2.206zm6.154 5h-.616V27.5h-1.23v1.25H4.922V27.5h-1.23v1.25H1.845a.62.62 0 0 1-.615-.625 8.22 8.22 0 0 1 1.57-4.822c1.636 1.873 3.944 2.947 6.43 2.947 2.485 0 4.794-1.074 6.43-2.947a8.224 8.224 0 0 1 1.57 4.822v.625h-1.846zm14.769 0H18.462v-.625a9.455 9.455 0 0 0-3.845-7.608c.197-.36.36-.743.484-1.142h.284c1.357 0 2.461-1.121 2.461-2.5s-1.104-2.5-2.461-2.5c0-3.236-2.434-5.904-5.539-6.218V1.875a.62.62 0 0 1 .616-.625h14.153v4.375c0 1.034.829 1.875 1.847 1.875h4.307v20.625a.62.62 0 0 1-.615.625zM15.384 17.5v-1.875c.68 0 1.231.56 1.231 1.25s-.552 1.25-1.23 1.25h-.032c.02-.206.032-.414.032-.625z"/>
        <path d="M16 10h11.077v1.25H16zM18.462 12.5h8.615v1.25h-8.615zM19.692 15h7.385v1.25h-7.385zM25.86 17.5h-6.168v1.25l6.154-.013.013 3.763h-6.167v1.25h6.167c.671 0 1.218-.555 1.218-1.237v-3.776c0-.682-.547-1.237-1.218-1.237zM9.23 21.25c1.36 0 2.462-1.25 2.462-2.5H6.77c0 1.25 1.102 2.5 2.462 2.5zM11.077 5.49V3.124a.62.62 0 0 1 .615-.625h2.339c.272 0 .408.334.216.53l-2.64 2.682c-.196.199-.53.058-.53-.223z"/>
    </g>
</svg>
