<svg xmlns="http://www.w3.org/2000/svg" width="32" height="32" viewBox="0 0 32 32">
    <g fill="#000" fill-rule="nonzero" opacity=".5">
        <path d="M14.985 21.796L8.36 15.212a1.218 1.218 0 0 1 0-1.73l.865-.86a1.236 1.236 0 0 1 1.74 0l4.045 4.02c.477.474 1.25.478 1.731.01l11.694-11.38a1.236 1.236 0 0 1 1.74.02l.857.869a1.218 1.218 0 0 1-.019 1.73L16.716 21.804a1.236 1.236 0 0 1-1.731-.01z"/>
        <path d="M31.444 8.331c.354-.345.551-.805.556-1.296a1.825 1.825 0 0 0-.528-1.306l-.857-.87a1.855 1.855 0 0 0-2.608-.028l-.289.281A15.978 15.978 0 0 0 16.615.017V0H16C7.177 0 0 7.177 0 16v.615h.015C.34 25.154 7.384 32 16 32c8.822 0 16-7.177 16-16 0-2.367-.507-4.637-1.495-6.754l.94-.915zm-1.706-2.609l.857.87a.6.6 0 0 1-.01.857L16.287 21.364a.623.623 0 0 1-.868-.005l-6.624-6.582a.602.602 0 0 1 0-.858l.866-.86a.62.62 0 0 1 .873 0l4.044 4.02a1.858 1.858 0 0 0 2.595.013L28.865 5.713a.62.62 0 0 1 .873.01zm-2.902.248l-1.762 1.716a12.246 12.246 0 0 0-8.458-3.976V1.248a14.75 14.75 0 0 1 10.22 4.722zM24.18 8.556l-7.866 7.654a.623.623 0 0 1-.868-.004l-4.044-4.02a1.854 1.854 0 0 0-2.609 0l-.865.86c-.35.348-.542.81-.542 1.301 0 .492.192.955.542 1.302l6.624 6.582c.359.357.831.535 1.304.535.467 0 .934-.173 1.29-.521l9.51-9.254c.274.976.422 1.984.422 3.009 0 6.108-4.97 11.077-11.077 11.077-6.108 0-11.077-4.97-11.077-11.077C4.923 9.892 9.893 4.923 16 4.923c3.14 0 6.08 1.325 8.18 3.633zm4.097 8.06h2.477a14.71 14.71 0 0 1-3.89 9.377l-1.75-1.75a12.237 12.237 0 0 0 3.163-7.628zM8.08 25.405a12.246 12.246 0 0 0 7.306 2.87v2.478a14.699 14.699 0 0 1-9.051-3.602l1.745-1.746zm8.536 2.87a12.24 12.24 0 0 0 7.628-3.163l1.75 1.75a14.714 14.714 0 0 1-9.378 3.89v-2.477zm-1.23-24.569a12.249 12.249 0 0 0-7.63 3.179l-1.738-1.74c2.49-2.293 5.759-3.754 9.368-3.902v2.463zm-10.24 2.31l1.74 1.739a12.248 12.248 0 0 0-3.177 7.629H1.243c.149-3.609 1.61-6.877 3.903-9.368zM3.725 16.615a12.258 12.258 0 0 0 3.456 7.95l-1.743 1.743a14.717 14.717 0 0 1-4.19-9.693h2.477zm27.028-1.23h-2.469a12.257 12.257 0 0 0-.623-3.336l-.056.02 1.965-1.912a14.597 14.597 0 0 1 1.183 5.228z"/>
    </g>
</svg>
